<?xml version="1.0" encoding="UTF-8"?><svg id="Layer_1" xmlns="http://www.w3.org/2000/svg" viewBox="0 0 3524.88 300"><defs><style>.cls-1,.cls-2,.cls-3{stroke-width:0px;}.cls-2{fill:#f58025;}.cls-3{fill:#fff;}</style></defs><path class="cls-1" d="m472.99,115.03c0,31.69-22.95,39.34-57.91,39.34h-28.41v3.28c0,48.73,0,61.19,22.95,61.19,1.09,0,2.19,1.09,2.19,2.19v3.28c0,1.09-1.09,2.19-2.19,2.19-26.23-.66-53.54-.66-79.77,0-1.09,0-2.19-1.09-2.19-2.19v-3.28c0-1.09.87-2.19,2.19-2.19,22.95,0,22.95-12.02,22.95-61.19v-15.3c0-48.73,0-61.19-22.95-61.19-1.09,0-2.19-1.09-2.19-2.19v-3.28c0-1.09,1.09-2.19,2.19-2.19h90.69c40.43,0,52.45,16.39,52.45,41.52Zm-64.47,30.6c12.02,0,28.41-6.56,28.41-30.6,0-18.58-6.56-32.78-31.69-32.78h-18.57v63.38h21.85Z"/><path class="cls-1" d="m638.42,115.03c0,24.04-22.29,34.53-46.99,34.97,27.1,5.25,43.05,27.75,49.17,54.64,1.53,6.77,10.05,13.99,20.76,14.21,1.31,0,2.19.87,2.19,2.19v3.28c0,1.09-.87,2.19-2.19,2.19h-51.36c-1.97,0-4.37-1.75-4.37-4.37-6.34-65.56-32.34-67.75-45.89-67.75h-7.65v3.28c0,48.73,0,61.19,22.95,61.19,1.31,0,2.19.87,2.19,2.19v3.28c0,1.09-.87,2.19-2.19,2.19-26.23-.66-53.54-.66-79.77,0-1.31,0-2.19-.66-2.19-2.19v-3.28c0-.87.87-2.19,2.19-2.19,22.95,0,22.95-12.02,22.95-61.19v-15.3c0-48.73,0-61.19-22.95-61.19-1.31,0-2.19-.87-2.19-2.19v-3.28c0-1.09.87-2.19,2.19-2.19h90.69c40.43,0,52.45,16.39,52.45,41.52Zm-62.28,30.6c8.74,0,26.22-6.56,26.22-30.6,0-12.02-4.81-32.78-31.69-32.78h-18.58v63.38h24.04Z"/><path class="cls-1" d="m785.07,75.7v3.28c0,1.09-1.09,2.19-2.19,2.19-25.13,0-28.41,11.8-28.41,61.19v15.3c0,49.17,3.28,61.19,28.41,61.19,1.09,0,2.19,1.09,2.19,2.19v3.28c0,1.09-1.09,2.19-2.19,2.19h-90.69c-1.09,0-2.19-1.09-2.19-2.19v-3.28c0-1.09,1.09-2.19,2.19-2.19,25.13,0,28.41-12.24,28.41-61.19v-15.3c0-48.95-3.28-61.19-28.41-61.19-1.31,0-2.19-1.09-2.19-2.19v-3.28c0-1.31.87-2.19,2.19-2.19,30.6.66,60.1,0,90.69,0,1.09,0,2.19,1.09,2.19,2.19Z"/><path class="cls-1" d="m999.14,75.7v3.28c0,1.09-1.09,2.19-2.19,2.19-12.89,0-28.41,3.28-28.41,31.69v111.46c0,1.09-1.09,2.19-2.19,2.19h-4.37c-1.09,0-2.19,0-3.28-1.09l-99.44-113.64v75.4c0,28.41,15.52,31.69,28.41,31.69,1.09,0,2.19,1.09,2.19,2.19v3.28c0,1.31-.87,2.19-2.19,2.19-21.85-.66-43.71-.66-65.56,0-1.31,0-2.19-.87-2.19-2.19v-3.28c0-1.09,1.09-2.19,2.19-2.19,12.89,0,28.41-3.28,28.41-31.69v-81.95c-7.87-11.58-17.05-22.73-27.32-24.04-1.09,0-2.19-1.09-2.19-2.19v-3.28c0-1.31.87-2.19,2.19-2.19h49.17c1.09,0,2.4,0,3.28,1.09l84.14,101.62v-63.38c0-28.41-15.52-31.69-28.41-31.69-1.09,0-2.19-1.09-2.19-2.19v-3.28c0-1.31.87-2.19,2.19-2.19,21.85.66,43.71.66,65.56,0,1.31,0,2.19.87,2.19,2.19Z"/><path class="cls-1" d="m1146.46,74.6l2.19,1.09c4.37,2.19,3.5,2.62,3.28,4.37-3.06,22.29.22,27.54,1.09,39.34,0,2.19-.44,4.15-2.19,5.46-3.93,2.4-7.65,2.19-8.74-2.19-7.43-28.85-26.88-44.8-45.89-44.8-32.34.66-44.8,33.87-44.8,74.3,0,36.06,15.3,65.56,50.26,65.56,21.85,0,34.97-14.21,41.52-22.95,3.28-4.37,10.93-1.09,9.83,3.28-25.13,53.54-142.27,40.21-142.05-45.89-.22-50.92,30.16-84.14,77.58-84.14,25.57,0,38.9,10.05,46.99,16.39l5.46-7.65c1.97-2.62,3.28-3.28,5.46-2.19Z"/><path class="cls-1" d="m1333.75,182.78h-4.37c-2.19,0-3.28,1.09-4.37,3.28-8.96,26.88-23.6,32.78-45.89,32.78h-4.37c-26.01,0-31.69-5.68-31.69-40.43v-24.04h14.2c7.65,0,24.04,1.09,24.04,26.22,0,1.09,1.09,2.19,2.19,2.19h3.28c1.09,0,2.19-1.09,2.19-2.19-.66-20.76-.66-40.43,0-61.19,0-1.09-1.09-2.19-2.19-2.19h-3.28c-1.09,0-2.19,1.09-2.19,2.19,0,25.13-16.39,26.22-24.04,26.22h-14.2v-49.17c0-12.67,1.97-15.08,10.93-15.3,25.13.22,47.21,2.4,56.82,27.32.87,2.19,2.19,3.28,4.37,3.28h4.37c1.09,0,2.19-1.09,2.19-2.19l-2.19-33.87c0-1.09-1.09-2.19-2.19-2.19h-131.12c-1.09,0-2.19,1.09-2.19,2.19v3.28c0,1.09,1.09,2.19,2.19,2.19,22.95,0,22.95,12.02,22.95,61.19v15.3c0,49.17,0,61.19-22.95,61.19-1.09,0-2.19,1.09-2.19,2.19v3.28c0,1.09,1.09,2.19,2.19,2.19h147.52c1.09,0,2.19-1.09,2.19-2.19v-39.34c0-1.09-1.09-2.19-2.19-2.19Z"/><path class="cls-1" d="m1516.03,75.7v40.43c0,1.09-1.09,2.19-2.19,2.19h-3.28c-1.09,0-2.4.22-3.28-2.19-5.03-14.21-13.55-34.97-42.61-34.97h-9.84v76.49c0,48.95,3.06,61.19,28.41,61.19,1.09,0,2.19,1.09,2.19,2.19v3.28c0,1.09-1.09,2.19-2.19,2.19-30.6-.66-60.1-.66-90.69,0-1.09,0-2.19-1.09-2.19-2.19v-3.28c0-1.09,1.09-2.19,2.19-2.19,25.35,0,28.41-12.24,28.41-61.19v-76.49h-9.83c-28.85,0-37.37,20.76-42.61,34.97-.87,2.19-2.19,2.19-3.28,2.19h-3.28c-1.09,0-2.19-1.09-2.19-2.19v-40.43c0-1.09,1.09-2.19,2.19-2.19h151.89c1.09,0,2.19,1.09,2.19,2.19Z"/><path class="cls-1" d="m1619.21,68.05c42.83.44,82.17,37.59,81.95,80.86.22,43.71-39.12,80.86-81.95,80.86-42.83-.44-82.17-37.59-81.95-80.86-.22-43.71,39.12-80.86,81.95-80.86Zm0,152.98c39.12-.22,42.18-55.29,41.52-72.12.22-12.89-2.4-71.46-41.52-72.12-39.12.22-41.74,58.79-41.52,72.12-.66,16.39,2.4,71.46,41.52,72.12Z"/><path class="cls-1" d="m1899.29,75.7v3.28c0,1.09-1.09,2.19-2.19,2.19-12.89,0-28.41,3.28-28.41,31.69v111.46c0,1.09-1.09,2.19-2.19,2.19h-4.37c-1.09,0-2.19,0-3.28-1.09l-99.44-113.64v75.4c0,28.41,15.52,31.69,28.41,31.69,1.09,0,2.19,1.09,2.19,2.19v3.28c0,1.31-.87,2.19-2.19,2.19-21.85-.66-43.71-.66-65.56,0-1.31,0-2.19-.87-2.19-2.19v-3.28c0-1.09,1.09-2.19,2.19-2.19,12.89,0,28.41-3.28,28.41-31.69v-81.95c-7.87-11.58-17.05-22.73-27.32-24.04-1.09,0-2.19-1.09-2.19-2.19v-3.28c0-1.31.87-2.19,2.19-2.19h49.17c1.09,0,2.4,0,3.28,1.09l84.14,101.62v-63.38c0-28.41-15.52-31.69-28.41-31.69-1.09,0-2.19-1.09-2.19-2.19v-3.28c0-1.31.87-2.19,2.19-2.19,21.85.66,43.71.66,65.56,0,1.31,0,2.19.87,2.19,2.19Z"/><path class="cls-1" d="m2119.42,75.69v3.28c0,1.09,0,2.19-2.19,2.19-16.39,0-19.67,7.65-19.67,22.95v61.19c0,38.24-10.93,63.37-61.19,63.37-42.61,0-57.91-25.13-57.91-63.37v-61.19c0-21.85-4.37-22.95-21.85-22.95-1.09,0-2.19-1.09-2.19-2.19v-3.28c0-.87,1.09-2.19,2.19-2.19,21.85.66,40.43.66,63.37,0,2.19,0,2.19,1.09,2.19,2.19v3.28c0,1.09,0,2.19-2.19,2.19-17.48,0-22.95,1.09-22.95,22.95v53.54c0,30.59,5.25,55.73,45.89,55.73s46.98-25.13,46.98-55.73v-53.54c0-21.85-16.39-22.95-31.69-22.95-2.19,0-2.19-1.09-2.19-2.19v-3.28c0-1.09,0-2.19,2.19-2.19,30.59.66,39.34.66,59,0,2.19,0,2.19.87,2.19,2.19Z"/><path class="cls-1" d="m2318.46,75.69v3.28c0,1.09,0,2.19-2.19,2.19-15.3,0-27.32,3.28-27.32,31.69v111.45q0,2.19-1.09,2.19h-5.46c-1.09,0,0-1.09-103.8-120.19v81.95c0,27.32,10.93,30.59,27.32,30.59,2.19,0,2.19,1.09,2.19,2.19v3.28c0,1.09,0,2.19-2.19,2.19-27.32-.66-34.97-.66-62.28,0-2.19,0-2.19-1.09-2.19-2.19v-3.28c0-1.09,0-2.19,2.19-2.19,17.48,0,27.32-3.28,27.32-30.59v-89.6c-7.65-10.93-10.93-17.48-25.13-17.48-2.19,0-2.19-1.09-2.19-2.19v-3.28c0-1.09,0-2.19,2.19-2.19h31.69c1.09,0,2.19,0,3.28,1.09l100.52,119.1v-80.86c0-28.41-12.02-31.69-27.32-31.69-2.19,0-2.19-1.09-2.19-2.19v-3.28c0-1.09,0-2.19,2.19-2.19,27.32.66,34.97.66,62.28,0,2.19,0,2.19,1.09,2.19,2.19Z"/><path class="cls-1" d="m2421.79,75.69v3.28c0,1.09,0,2.19-2.19,2.19-25.13,0-27.32,1.09-27.32,61.19v15.3c0,61.19,2.19,61.19,27.32,61.19,2.19,0,2.19,1.09,2.19,2.19v3.28c0,1.09,0,2.19-2.19,2.19-30.6-.66-42.61-.66-73.21,0-2.19,0-2.19-1.09-2.19-2.19v-3.28c0-1.09,0-2.19,2.19-2.19,25.13,0,27.32,0,27.32-61.19v-15.3c0-60.1-2.19-61.19-27.32-61.19-2.19,0-2.19-1.09-2.19-2.19v-3.28c0-1.31,0-2.19,2.19-2.19,31.69.66,42.61.66,73.21,0,2.19,0,2.19,1.09,2.19,2.19Z"/><path class="cls-1" d="m2604.77,75.69v3.28c0,1.09,0,2.19-2.19,2.19-14.21,0-19.01,7.65-25.13,22.95l-48.08,120.19c-.87,2.19-1.09,2.19-2.19,2.19h-3.28c-1.09,0-1.31,0-2.19-2.19l-48.08-120.19c-6.77-17.05-8.96-22.95-25.13-22.95-2.19,0-2.19-1.09-2.19-2.19v-3.28c0-1.09,0-2.19,2.19-2.19,16.39.66,37.15.44,63.37,0,2.19,0,2.19,1.31,2.19,2.19v3.28c0,1.09,0,2.19-2.19,2.19-26.22,0-22.95,7.65-16.39,22.95,5.03,11.58,17.48,43.27,37.15,91.78l37.15-91.78c2.19-5.24,8.74-22.95-17.48-22.95-2.19,0-2.19-1.09-2.19-2.19v-3.28c0-1.09,0-2.19,2.19-2.19,26.22.66,41.52,0,50.26,0,2.19,0,2.19.87,2.19,2.19Z"/><path class="cls-1" d="m2766.38,182.77h-2.18c-3.28,0-3.5,1.09-4.37,3.28-8.74,25.13-1.97,32.78-50.26,32.78h-8.74c-26.22,0-28.41-2.19-28.41-33.87v-31.69h15.3c7.65,0,24.04,2.19,24.04,27.32,0,2.19,1.09,2.19,2.19,2.19h3.28c1.09,0,2.19,0,2.19-2.19v-61.19c0-2.19-1.09-2.19-2.19-2.19h-3.28c-1.09,0-2.19,0-2.19,2.19,0,25.13-16.39,26.22-24.04,26.22h-15.3v-52.45c0-9.18,1.97-11.8,16.61-12.02,45.67.22,50.7,2.62,56.6,27.32.44,2.19,1.09,3.28,4.37,3.28h2.19c1.09,0,2.19-1.09,2.19-2.19l-2.19-33.87c0-1.09-1.09-2.19-2.19-2.19-76.48.66-97.25.66-120.19,0-2.4,0-2.19,1.53-2.19,2.19v3.28c0,1.09,0,2.19,2.19,2.19,22.95,0,24.04,12.02,24.04,61.19v15.3c0,49.17-1.09,61.19-24.04,61.19-2.19,0-2.19,1.09-2.19,2.19v3.28c0,.66,0,2.19,2.19,2.19,22.95-.66,43.71-.66,136.58,0,2.19,0,2.19-1.09,2.19-2.19v-39.34c0-2.19-1.09-2.19-2.19-2.19Z"/><path class="cls-1" d="m2920.23,110.65c0,27.75-24.04,39.34-46.98,39.34,27.53,0,40.65,27.97,46.98,54.63,1.75,7.43,10.05,14.2,20.76,14.2,2.19,0,2.19.87,2.19,2.19v3.28c0,1.09,0,2.19-2.19,2.19h-38.24c-1.97,0-4.37-1.09-4.37-4.37,0-66.21-37.59-69.93-51.35-69.93h-8.74c0,64.47-2.19,66.65,25.13,66.65,2.19,0,2.19,1.09,2.19,2.19v3.28c0,1.09,0,2.19-2.19,2.19-26.22-.66-41.52-.66-68.84,0-2.19,0-2.19-1.09-2.19-2.19v-3.28c0-1.09,0-2.19,2.19-2.19,27.32,0,25.13-2.19,25.13-65.56v-8.74c0-63.37,2.19-63.37-25.13-63.37-2.19,0-2.19-.87-2.19-2.19v-3.28c0-1.09,0-2.19,2.19-2.19h78.67c24.91,0,46.98,12.02,46.98,37.15Zm-73.21,33.87c41.52,0,48.08-14.2,48.08-33.87,0-16.39-3.28-29.5-48.08-29.5h-8.74v63.37h8.74Z"/><path class="cls-1" d="m3051.88,85.52l6.56-6.56c1.97-2.19,2.19-2.62,5.46-1.09,1.97,1.09,3.28,2.19,3.28,3.28-2.19,10.05-5.9,17.92-1.09,31.69.87,3.28.87,4.37-2.19,5.46-3.5,1.09-3.93.87-5.46-3.28-10.05-22.95-22.07-35.62-40.43-34.96-29.72,1.09-30.81,21.85-30.59,26.22-.22,41.52,90.47,20.76,90.69,77.58-.22,30.59-17.48,44.8-49.17,44.8s-34.97-12.02-42.61-12.02c-2.4,0-6.77,3.5-8.74,5.46-1.09,1.09-3.28,1.09-5.46,0-4.15-2.19-3.5-3.06-2.19-8.74,1.97-12.02,1.75-17.48,1.09-29.5-.44-3.28-1.31-4.37,2.19-5.46,4.37-1.53,3.93,1.09,5.46,4.37,10.71,28.41,23.82,38.24,45.89,38.24,32.56,0,35.84-22.95,36.06-32.78-.22-37.15-89.82-19.67-89.6-74.3-.22-24.04,19.45-41.52,44.8-41.52,20.54,0,28.63,7.87,36.06,13.11Z"/><path class="cls-1" d="m3177.73,75.69v3.28c0,1.09,0,2.19-2.19,2.19-25.13,0-27.32,1.09-27.32,61.19v15.3c0,61.19,2.19,61.19,27.32,61.19,2.19,0,2.19,1.09,2.19,2.19v3.28c0,1.09,0,2.19-2.19,2.19-30.6-.66-42.61-.66-73.21,0-2.19,0-2.19-1.09-2.19-2.19v-3.28c0-1.09,0-2.19,2.19-2.19,25.13,0,27.32,0,27.32-61.19v-15.3c0-60.1-2.19-61.19-27.32-61.19-2.19,0-2.19-1.09-2.19-2.19v-3.28c0-1.31,0-2.19,2.19-2.19,31.69.66,42.61.66,73.21,0,2.19,0,2.19,1.09,2.19,2.19Z"/><path class="cls-1" d="m3358.58,75.69v40.43c0,2.19-1.09,2.19-2.19,2.19h-2.19c-1.09,0-2.19,0-3.28-2.19-6.56-14.2-4.37-34.96-45.89-34.96h-13.11v76.49c0,61.19,2.19,61.19,27.32,61.19,2.19,0,2.19,1.09,2.19,2.19v3.28c0,1.31,0,2.19-2.19,2.19-28.41-.44-44.8-.44-73.21,0-2.19,0-2.19-.87-2.19-2.19v-3.28c0-1.09,0-2.19,2.19-2.19,25.13,0,27.32,0,27.32-61.19v-76.49h-13.11c-41.52,0-39.34,20.76-45.89,34.96-1.09,2.19-2.19,2.19-3.28,2.19h-2.19c-1.09,0-2.19,0-2.19-2.19v-40.43c0-1.09,0-2.19,2.19-2.19h147.51c2.19,0,2.19,1.09,2.19,2.19Z"/><path class="cls-1" d="m3522.69,73.5c1.09,0,2.19,1.09,2.19,2.19v3.28c0,1.09,0,2.19-2.19,2.19-8.74,0-21.2,7.65-28.41,22.95l-31.69,66.65c0,48.08,3.28,48.08,28.41,48.08,2.19,0,2.19,2.19,2.19,3.28v2.19c0,1.09,0,2.19-2.19,2.19-29.5-.66-45.89-.66-73.21,0-2.19,0-2.19-.87-2.19-2.19v-3.28c0-1.09,0-2.19,2.19-2.19,22.95,0,26.22,0,26.22-45.89l-36.06-68.84c-8.3-15.73-10.05-22.95-26.22-22.95-2.19,0-2.19-1.09-2.19-2.19v-3.28c0-1.09,0-2.19,2.19-2.19,16.39.66,45.89.66,59,0,2.19,0,2.19,1.09,2.19,2.19v3.28c0,1.09,0,2.19-2.19,2.19-13.11,0-21.85,3.93-12.02,22.95l29.5,56.82,27.32-56.82c7.65-15.95,8.74-22.95-13.11-22.95-2.19,0-2.19-1.09-2.19-2.19v-3.28c0-1.09,0-2.19,2.19-2.19,21.85.66,41.52,0,50.26,0Z"/><path class="cls-1" d="m229.32,126.48c10.36-48.08,5.02-82.69,5.02-82.69C154.57,65.36,117.86,0,117.86,0c0,0-36.71,65.36-116.49,43.79,0,0-5.34,34.61,5.02,82.69h222.92Z"/><path class="cls-2" d="m6.4,126.48c5.32,24.69,14.78,52.92,31.23,81.85,7.22,12.69,15.78,25.51,25.93,38.23,14.59,18.28,32.45,36.33,54.3,53.44,21.86-17.11,39.71-35.16,54.3-53.44,10.15-12.71,18.71-25.54,25.93-38.23,16.45-28.93,25.91-57.16,31.23-81.85H6.4Z"/><path class="cls-1" d="m117.86,130.63l-80.23,77.7c7.22,12.69,15.78,25.51,25.93,38.23l54.3-53.54,54.3,53.54c10.15-12.71,18.71-25.54,25.93-38.23l-80.23-77.7Z"/><path class="cls-3" d="m105.86,51.71c-3.65.58-7.24.97-10.89,1.63-5.59,1.01-12.05,1.87-18.06-.61v51.44c2.27,1.81,6.72,2.23,10.14,2.02,6.11-.49,12.07-1.81,18.17-2.44,4.04-.53,7.97-.8,11.52,2.07v-51.02c-2.95-3.82-6.98-3.74-10.89-3.09Z"/><path class="cls-3" d="m140.76,53.33c-3.65-.65-7.24-1.04-10.89-1.63-3.91-.65-7.94-.73-10.89,3.09v51.02c3.54-2.88,7.48-2.6,11.53-2.07,6.1.63,12.06,1.95,18.17,2.44,3.41.21,7.87-.21,10.14-2.02v-51.44c-6,2.48-12.46,1.62-18.06.61Z"/><path class="cls-3" d="m117.83,114.81c2.83.01,4.85-.75,5.52-1.03,0,0,0-3.56,0-3.56,2.26.32,13.24,1.76,24.85,1.85,7.47,0,15.32-1.04,17.68-1.38v-51.66c-1.28-.27-3.64-.79-4.84-1.06,0,0,.01,46.95-.01,46.95-.04.07-.95,1.62-3.06,2.31-5.4,1.8-9.43,1.26-13.69.69-3.8-.51-7.27-.99-10.61-1.47-5.03-.67-11.19-2.37-14.72,2.53,0,0-.05.08-.05.08l-.35-.2h-1.37l-.35.2-.05-.08c-.86-1.41-2.26-2.2-3.28-2.62-3.66-1.43-7.65-.43-11.43.09-3.33.48-6.8.96-10.6,1.46-4.28.57-8.31,1.11-13.71-.69-2.11-.69-3.02-2.24-3.06-2.31-.04-.01,0-46.93-.01-46.95-1.21.27-3.57.78-4.84,1.06,0,0,0,51.66,0,51.66,2.36.34,10.21,1.38,17.68,1.38,11.88-.09,23.39-1.65,24.85-1.85v3.56c.69.28,2.59,1.02,5.46,1.03Z"/><rect class="cls-3" x="62.96" y="65.53" width="4.74" height="9.47"/><rect class="cls-3" x="62.96" y="90.34" width="4.74" height="9.47"/><rect class="cls-3" x="168.02" y="65.53" width="4.74" height="9.47" transform="translate(340.78 140.54) rotate(-180)"/><rect class="cls-3" x="168.02" y="90.34" width="4.74" height="9.47" transform="translate(340.78 190.15) rotate(-180)"/><path class="cls-1" d="m90.94,62.18c-.79.06-1.31.48-1.55,1.01l-3.25,7.24s-.16.11-.26.11-.22-.11-.3-.33c-.08-.26-.48-1.27-1.32-3.24l-1.05-2.37c-.38-.87-.67-1.45-.77-1.63-.38-.65-.85-.7-1.37-.79-.06-.08-.06-.15-.06-.22s0-.12.04-.21h.54c.61,0,1.13.03,1.58.03.54,0,1.43-.05,2.02-.05h.36c.06.02.08.14.08.19,0,.04,0,.18-.04.24-.4.04-1.29.02-1.29.57,0,.12.02.34.08.48l2.14,5.07,1.79-4.21c.22-.48.24-.89.24-1.11,0-.48-.33-.68-1.23-.79-.02-.06-.06-.14-.06-.2,0-.08.04-.2.06-.25h.26c.4,0,.79.05,1.68.05.16,0,.78-.03,1.07-.03h.62c.04.07.08.12.08.19,0,.06-.04.19-.08.24"/><path class="cls-1" d="m100,70.3c-2.6,0-4-.07-4.36-.07-.28,0-.91-.02-1.23-.02-.36,0-1.19.06-2.1.06l-.51-.02c-.04-.07-.04-.12-.04-.19,0-.07,0-.17.02-.25.7-.05,1.19-.17,1.31-.28.14-.17.24-.54.28-1.31,0-.4.02-.83.02-1.28,0-.65-.02-1.45-.02-2.41v-1.34c-.02-.94-.48-.94-1.45-1.05-.02-.09-.04-.17-.04-.23,0-.05.02-.19.08-.22h.48c.32,0,1.17.02,2.79.02,1.49,0,2.93.03,3.25.03.2,0,.77.01.89.01.2,0,.28.02.28.2l.12,1.94c-.12.06-.14.08-.24.08-.08,0-.14,0-.2-.02-.57-.97-.85-1.16-1.29-1.49-.16-.12-.4-.19-.75-.22-.12,0-.42-.02-1.15-.02-.59,0-.89.02-.97.03-.1,0-.08,0-.12.33-.02.21-.04.6-.04,1.72v1.11h.3c.38,0,.75-.04.97-.1.34-.09.69-.34.87-.62.08-.1.16-.56.2-.71.06-.04.16-.06.27-.06.08,0,.16.02.22.07-.02.35-.08,1-.08,1.83,0,.42.04,1.33.04,1.71-.08.06-.12.07-.24.07-.06,0-.18,0-.24-.03-.08-.73-.2-1.23-.81-1.48-.34-.14-.62-.18-.95-.18-.18,0-.4.02-.57.04v2.24c0,.51.04.83.12,1.01.06.15.26.45.51.48.12.02.34.06.8.06h1.23c.32,0,.77-.04.93-.14.3-.2,1.09-1.05,1.37-1.83.12-.05.18-.05.26-.05s.16.02.26.06v2.27c0,.21-.14.24-.46.24"/><path class="cls-1" d="m110.3,64.43c-.06,0-.14-.02-.24-.03-.2-.53-.44-1.01-.64-1.27-.36-.44-.69-.72-1.59-.83-.2,0-.67,0-.83,0l-.02,3.77c0,.6,0,1.3.02,2.6.02,1,.46,1,1.48,1.13.06.11.08.18.08.25,0,.07-.02.14-.06.21h-.37c-.6,0-1.79-.04-2.16-.04-.26,0-1.56.06-2.18.06-.06-.09-.08-.09-.08-.23,0-.07.02-.14.06-.22,1.37-.1,1.51-.36,1.55-.8.04-.28.04-1.4.04-2.55v-3.13c0-.39-.02-.78-.08-1.04-.26,0-1.09,0-1.33.09-.69.26-1.19.85-1.72,1.88-.06.03-.16.03-.22.03-.08,0-.16-.03-.2-.09v-2.2c0-.2.02-.25.26-.25.19,0,.51.01.93.01.3,0,1.55.02,3.11.02,2.06,0,3.59-.05,3.99-.05.2,0,.34,0,.41.07.02.04,0,.2,0,.32v2.2c-.04.08-.14.11-.22.11"/><path class="cls-1" d="m90.52,77.85c-.08,0-.14-.02-.26-.03-.18-.53-.41-1.01-.63-1.27-.34-.44-.7-.72-1.59-.83-.2,0-.67,0-.83,0l-.02,3.77c0,.6,0,1.3.02,2.6.02,1,.47,1,1.5,1.13.06.11.06.18.06.25s0,.14-.04.21h-.38c-.61,0-1.8-.04-2.16-.04-.26,0-1.56.06-2.2.06-.04-.09-.06-.09-.06-.23,0-.07.02-.14.04-.23,1.37-.1,1.51-.35,1.56-.79.02-.28.02-1.4.02-2.55v-3.13c0-.39,0-.78-.06-1.04-.26,0-1.11,0-1.35.09-.69.26-1.17.84-1.71,1.88-.08.03-.18.03-.24.03-.08,0-.14-.03-.2-.09v-2.2c0-.2.04-.25.26-.25s.52.01.93.01c.32,0,1.56.02,3.13.02,2.04,0,3.59-.05,3.96-.05.22,0,.36,0,.41.07.04.04.02.2.02.32v2.2c-.06.08-.14.11-.22.11"/><path class="cls-1" d="m100.31,83.72c-2.58,0-4-.07-4.34-.07-.28,0-.91-.02-1.25-.02s-1.19.06-2.08.06l-.51-.02c-.04-.07-.06-.12-.06-.19,0-.07,0-.17.04-.25.69-.05,1.19-.17,1.29-.27.16-.17.24-.54.28-1.31.02-.4.04-.83.04-1.28,0-.65-.02-1.45-.02-2.41,0-.67-.02-1.06-.02-1.34-.02-.94-.46-.94-1.43-1.05-.04-.09-.06-.17-.06-.23,0-.05.04-.19.1-.22h.46c.34,0,1.17.02,2.79.02,1.51,0,2.93.03,3.27.03.18,0,.78.01.87.01.22,0,.3.02.3.2l.1,1.94c-.1.06-.14.08-.24.08-.06,0-.12,0-.2-.02-.56-.97-.83-1.16-1.29-1.49-.16-.12-.38-.19-.73-.22-.12,0-.41-.02-1.17-.02-.57,0-.89.02-.95.03-.12,0-.1-.01-.14.32,0,.21-.02.6-.02,1.72v1.11h.28c.4,0,.77-.04.97-.1.36-.09.69-.34.89-.62.06-.1.16-.56.18-.71.08-.04.18-.06.28-.06s.18.02.24.07c-.02.35-.1,1-.1,1.83,0,.41.06,1.33.06,1.71-.1.06-.12.07-.24.07-.08,0-.18,0-.26-.03-.08-.73-.18-1.23-.81-1.48-.34-.14-.62-.18-.93-.18-.18,0-.4.02-.57.04v2.24c0,.51.04.83.1,1.01.08.15.28.45.51.48.12.02.36.06.8.06h1.25c.32,0,.75-.04.91-.14.32-.2,1.11-1.05,1.39-1.83.1-.05.18-.05.26-.05.06,0,.16.02.24.06v2.27c0,.21-.14.24-.46.24"/><path class="cls-1" d="m106.34,83.9c-.71,0-1.51-.28-1.98-.51-.08-.04-.24-.07-.32-.07-.1,0-.35.13-.64.33-.2,0-.43-.1-.49-.26,0-.18.16-.72.16-1.05,0-.2-.06-1.16-.08-1.39.08-.12.24-.18.38-.18.06,0,.1,0,.14.01.18.35.54,1.28.8,1.66.53.62,1.33.9,1.9.9.63,0,1.11-.13,1.39-.42.4-.38.48-.62.48-1.04,0-.31-.06-.56-.24-.77-.22-.28-.4-.4-.89-.64-.38-.18-1.71-.5-2.18-.76-.59-.28-.89-.52-1.19-.84-.36-.46-.49-1.07-.49-1.56,0-1.38,1.09-2.4,2.63-2.4.57,0,1.37.05,2.04.58.14-.16.32-.32.5-.48.26,0,.43.14.46.23-.02.21-.14.74-.14,1.17,0,.23.14,1.13.14,1.27-.1.04-.2.12-.34.12-.04,0-.1-.02-.16-.04-.24-.41-.46-1.11-.72-1.48-.4-.54-.95-.73-1.71-.73-.85,0-1.55.54-1.55,1.27s.57,1.05,1.05,1.27c.36.14.79.31,1.29.46.64.22,1.11.38,1.37.53.99.51,1.4,1.24,1.4,2.26,0,1.57-1.43,2.58-3.01,2.58"/><path class="cls-1" d="m93.97,97.15c-2.6,0-4-.07-4.36-.07-.27,0-.91-.02-1.23-.02-.36,0-1.19.06-2.1.06l-.51-.02c-.04-.07-.04-.12-.04-.19,0-.07,0-.17.02-.25.69-.05,1.19-.17,1.31-.28.14-.17.24-.54.28-1.31,0-.4.02-.83.02-1.28,0-.65-.02-1.45-.02-2.41v-1.34c-.02-.94-.48-.94-1.45-1.05-.02-.09-.04-.17-.04-.23,0-.05.02-.19.08-.22h.48c.32,0,1.17.02,2.79.02,1.49,0,2.93.03,3.25.03.2,0,.77.01.89.01.2,0,.28.02.28.2l.12,1.94c-.12.06-.14.08-.24.08-.08,0-.14,0-.2-.02-.57-.97-.85-1.16-1.29-1.49-.16-.12-.4-.19-.75-.22-.12,0-.42-.02-1.15-.02-.59,0-.89.02-.97.03-.1,0-.08-.01-.12.32-.02.21-.04.6-.04,1.73v1.11h.3c.38,0,.75-.04.97-.1.34-.09.69-.34.87-.61.08-.1.16-.57.2-.72.06-.04.16-.06.28-.06.08,0,.16.02.22.07-.02.35-.08,1-.08,1.83,0,.42.04,1.33.04,1.71-.08.06-.12.07-.24.07-.06,0-.18,0-.24-.03-.08-.73-.2-1.23-.81-1.48-.34-.14-.62-.18-.95-.18-.18,0-.4.02-.57.04v2.24c0,.51.04.83.12,1.01.06.15.26.45.51.48.12.02.34.06.8.06h1.23c.32,0,.77-.04.93-.14.3-.2,1.09-1.05,1.37-1.83.12-.05.18-.05.26-.05s.16.02.26.06v2.27c0,.21-.14.24-.46.24"/><path class="cls-1" d="m106.46,89.01c-.87.03-1.63.51-1.63,1.89l-.02,4.41c0,.17.08,1.42.08,1.89-.14.09-.28.14-.36.14-.04,0-.12-.05-.22-.14l-6.04-6.5.06,1.33.02,2.4c0,.19.04.64.08.97.04.53.2.71.44.91.3.26.79.34,1.15.38.04.07.06.14.06.2,0,.03-.02.14-.08.22h-.65c-.56,0-.99-.02-1.56-.02-.38,0-.91.04-1.29.04h-.28c-.02-.06-.02-.16-.02-.2s0-.12.04-.22c.43-.04,1.11-.24,1.37-.6.1-.22.14-.61.14-1.03v-3.07c0-.49-.02-.75-.04-1.23-.02-.4-.1-.69-.3-.93-.02-.05-.22-.26-.42-.45-.19-.17-.67-.31-.97-.43-.04-.08-.06-.18-.06-.2,0-.05.02-.16.06-.22h.22c.18,0,1.11.05,1.82.05h.41c.08.03.22.12.26.17l4.48,4.89c.34.38.77.87,1.01,1.19v-3.52c0-.48-.02-.81-.04-.98-.04-.37-.12-.67-.25-.92-.14-.22-.97-.34-1.41-.43-.04-.09-.04-.19-.04-.26,0-.05,0-.11.02-.19h.26c.41,0,1.09.06,1.5.06,1.03,0,1.35-.03,1.86-.03h.34c.04.07.04.16.04.21,0,.04,0,.14-.04.21"/><path class="cls-1" d="m134.7,62.16c-.85.03-1.63.51-1.63,1.89v4.41c0,.17.06,1.42.06,1.89-.12.09-.28.14-.34.14s-.12-.05-.24-.14l-6.04-6.5.08,1.33.02,2.4c0,.19.04.64.06.97.06.53.22.71.44.91.32.26.81.34,1.15.38.04.07.06.14.06.2,0,.03-.02.14-.06.22h-.67c-.54,0-.97-.02-1.56-.02-.38,0-.89.04-1.27.04h-.27c-.02-.06-.04-.16-.04-.2s0-.12.06-.22c.41-.04,1.09-.24,1.35-.6.12-.22.14-.61.14-1.03v-3.07c0-.49,0-.74-.02-1.23-.02-.4-.12-.69-.3-.93-.04-.05-.22-.26-.44-.45-.18-.17-.67-.31-.97-.43-.02-.08-.04-.18-.04-.2,0-.05.02-.16.04-.22h.24c.16,0,1.09.05,1.8.05h.41c.08.03.22.12.28.17l4.48,4.89c.34.38.77.87,1.01,1.19v-3.52c0-.48-.04-.81-.06-.98-.02-.37-.12-.67-.25-.92-.14-.22-.97-.34-1.39-.43-.04-.09-.06-.19-.06-.26,0-.05,0-.11.04-.19h.26c.41,0,1.09.06,1.5.06,1.01,0,1.35-.03,1.87-.03h.32c.04.07.06.16.06.21,0,.04-.02.14-.06.21"/><path class="cls-1" d="m142.21,62.97c-.42-.57-.93-.9-1.71-.9-.72,0-1.17.32-1.59.9-.51.65-.79,1.69-.79,3.02s.28,2.34.75,3c.44.62.93.94,1.69.94.91,0,1.45-.43,1.86-1.17.38-.65.56-1.56.56-2.74,0-1.42-.28-2.41-.77-3.05m1.39,6.25c-.83.82-1.98,1.29-3.05,1.29s-2.18-.43-3-1.23c-.89-.85-1.29-2-1.29-3.26s.4-2.37,1.29-3.24c.95-.9,1.98-1.28,3.01-1.28.75,0,1.45.19,2.26.64,1.33.84,2.1,2.25,2.1,3.79,0,1.21-.48,2.42-1.33,3.29"/><path class="cls-1" d="m155.76,62.18c-.77.06-1.29.48-1.53,1.01l-3.25,7.24s-.16.11-.26.11-.24-.11-.3-.33c-.08-.26-.48-1.27-1.34-3.24l-1.03-2.37c-.38-.87-.67-1.45-.77-1.63-.4-.65-.85-.7-1.37-.79-.08-.08-.08-.15-.08-.22s0-.12.06-.21h.54c.59,0,1.11.03,1.56.03.54,0,1.43-.05,2.04-.05h.34c.08.02.1.14.1.19,0,.04,0,.18-.04.24-.41.04-1.29.02-1.29.57,0,.12,0,.34.08.48l2.12,5.07,1.8-4.21c.2-.48.22-.89.22-1.11,0-.48-.34-.68-1.23-.79-.02-.06-.04-.14-.04-.2,0-.08.02-.2.04-.25h.26c.4,0,.79.05,1.71.05.14,0,.77-.03,1.07-.03h.61c.04.07.06.12.06.19,0,.06-.02.19-.08.24"/><path class="cls-1" d="m131.9,77.85c-.08,0-.14-.02-.26-.03-.18-.53-.41-1.01-.63-1.27-.34-.44-.69-.72-1.59-.83-.2,0-.67,0-.83,0l-.02,3.77c0,.6,0,1.3.02,2.6.02,1,.48,1,1.51,1.13.06.11.06.18.06.25s0,.14-.04.21h-.37c-.62,0-1.8-.04-2.16-.04-.26,0-1.56.06-2.2.06-.04-.09-.06-.09-.06-.23,0-.07.02-.14.04-.23,1.37-.1,1.51-.35,1.56-.79.02-.28.02-1.4.02-2.55v-3.13c0-.39,0-.78-.06-1.04-.26,0-1.11,0-1.35.09-.69.26-1.17.84-1.71,1.88-.08.03-.18.03-.24.03-.08,0-.14-.03-.19-.09v-2.2c0-.2.04-.25.26-.25s.52.01.93.01c.32,0,1.56.02,3.13.02,2.04,0,3.59-.05,3.97-.05.22,0,.35,0,.41.07.04.04.02.2.02.32v2.2c-.06.08-.14.11-.22.11"/><path class="cls-1" d="m136.76,76.92h-.02c-.18.33-.5,1.07-.62,1.38-.46,1.11-.61,1.48-.69,1.64h2.55c-.2-.51-.85-2.08-1.23-3.02m5.41,6.79h-.67c-.44,0-.93-.06-1.45-.06-.81,0-1.84.06-2.24.06-.04-.04-.06-.12-.06-.22,0-.06.02-.14.04-.2.83-.04,1.17-.18,1.17-.52,0-.14,0-.41-.26-1.11-.26-.62-.4-.91-.46-1.07-.04-.06-.06-.09-.24-.09h-2.7c-.18.21-.39.81-.63,1.64-.06.22-.06.41-.06.49,0,.28.26.59,1.21.61.06.1.06.18.06.24,0,.06,0,.13-.02.2h-.24c-.64,0-.81-.04-1.49-.04-.43,0-1.48.04-1.84.04-.02-.07-.04-.1-.04-.18,0-.06,0-.12.04-.22.52-.11.99-.26,1.23-.62.14-.21.59-1,1.09-2.23.48-1.14,1.05-2.58,1.31-3.19.36-.74.48-.99.59-1.25.18-.38.38-.75.46-.89.08-.1.26-.16.34-.16.14,0,.32.09.38.18.08.16.18.33.2.43.5,1.18.89,2.23,1.51,3.7.32.74.48,1.21.81,1.98.24.49.37.85.61,1.3.32.64.83.65,1.35.78.02.06.08.12.08.2s-.04.12-.08.2"/><path class="cls-1" d="m155.4,83.71l-3.47-.04h-.95c-.04-.07-.06-.18-.06-.22,0-.11.02-.13.08-.22.18-.02.64,0,.85-.08.36-.16.49-.51.49-1.02v-6.16h-.02l-1.82,3.99c-.2.44-.43.91-.64,1.39-.41.93-.63,1.58-.75,1.94-.06.16-.2.16-.28.16-.12,0-.2-.04-.26-.24-.24-.51-.4-.85-.48-1.07l-2.85-6.28h-.06v1.61l.06,4.01c0,1.22.64,1.8,1.61,1.8.04.07.08.18.08.21,0,.05-.02.14-.06.21-.06,0-.25.02-.43.02-.12,0-.75-.06-1.67-.06-.26,0-.79.02-1.21.02h-.57c-.02-.07-.04-.14-.04-.21,0-.03.02-.12.04-.19.24-.06,1.07-.26,1.25-.44.18-.17.34-.53.34-1.38v-4.4c-.02-.7-.1-.97-.43-1.21-.14-.11-.67-.17-1.13-.23-.04-.08-.06-.17-.06-.24,0-.06.02-.14.06-.23.34,0,.93.03,1.53.03h2.08c.08.06.12.1.18.22l2.55,5.8.46-1.16c.4-.93.97-2.33,1.78-3.84.18-.34.4-.77.52-.99l3.25-.05c.04.07.08.13.08.21,0,.09-.02.14-.06.22-.36.06-.97.06-1.27.56-.1.16-.16.32-.16,1.02v4.13c0,1.58.4,1.74.57,1.86.1.06.59.12.87.12.04.08.06.14.06.22,0,.13-.04.14-.06.22"/><path class="cls-1" d="m131.7,91.29c-.08,0-.14-.02-.26-.03-.18-.53-.41-1.01-.63-1.27-.34-.44-.69-.72-1.59-.83-.2,0-.67,0-.83,0l-.02,3.77c0,.6,0,1.3.02,2.6.02,1,.48,1,1.5,1.13.06.11.06.18.06.25,0,.07,0,.14-.04.21h-.37c-.62,0-1.8-.04-2.16-.04-.26,0-1.56.06-2.2.06-.04-.09-.06-.09-.06-.23,0-.07.02-.14.04-.22,1.37-.1,1.51-.36,1.56-.8.02-.28.02-1.4.02-2.55v-3.13c0-.38,0-.78-.06-1.04-.26,0-1.11,0-1.35.09-.69.26-1.17.85-1.71,1.88-.08.03-.18.03-.24.03-.08,0-.14-.03-.2-.09v-2.2c0-.2.04-.25.26-.25s.52.01.93.01c.32,0,1.56.02,3.13.02,2.04,0,3.59-.05,3.96-.05.22,0,.35,0,.41.07.04.04.02.2.02.32v2.2c-.06.08-.14.11-.22.11"/><path class="cls-1" d="m142.34,89.04c-.77.06-1.29.48-1.53,1.01l-3.25,7.24s-.16.11-.25.11-.24-.11-.3-.34c-.08-.26-.48-1.27-1.35-3.24l-1.03-2.37c-.38-.87-.67-1.45-.77-1.63-.4-.65-.85-.7-1.37-.79-.08-.08-.08-.15-.08-.22s0-.12.06-.21h.54c.59,0,1.11.03,1.56.03.54,0,1.43-.05,2.04-.05h.34c.08.02.1.14.1.19,0,.04,0,.18-.04.24-.42.04-1.29.02-1.29.57,0,.12,0,.34.08.48l2.12,5.07,1.8-4.21c.2-.48.22-.89.22-1.11,0-.48-.33-.68-1.23-.79-.02-.06-.04-.14-.04-.2,0-.08.02-.2.04-.25h.26c.4,0,.79.05,1.71.05.14,0,.77-.03,1.07-.03h.61c.04.07.06.12.06.19,0,.06-.02.19-.08.24"/><path class="cls-1" d="m155.58,97.14l-3.45-.04h-.97c-.04-.07-.04-.18-.04-.22,0-.11,0-.13.06-.22.2-.02.64,0,.87-.08.34-.16.48-.51.48-1.02v-5s.02-.9.02-1.16h-.04l-1.8,3.99c-.22.44-.43.91-.65,1.39-.4.93-.64,1.58-.76,1.94-.04.16-.18.16-.27.16s-.18-.04-.26-.24c-.22-.52-.38-.85-.46-1.07l-2.87-6.28h-.06v1.61l.06,4.01c.02,1.22.64,1.8,1.63,1.8.04.07.06.18.06.21,0,.05,0,.14-.04.21-.08,0-.26.02-.46.02-.12,0-.73-.06-1.64-.06-.28,0-.81.02-1.21.02h-.57c-.04-.07-.06-.14-.06-.21,0-.03.02-.12.06-.19.22-.06,1.07-.26,1.25-.44.16-.17.32-.53.32-1.38l.02-2.02-.02-2.38c-.02-.7-.08-.97-.43-1.21-.14-.11-.67-.17-1.11-.23-.06-.08-.08-.17-.08-.24,0-.06.02-.14.08-.22.32,0,.93.03,1.51.03h2.1c.06.06.12.1.16.22l2.56,5.8.48-1.16c.38-.93.97-2.33,1.78-3.84.16-.34.4-.77.52-.99l3.23-.05c.04.07.1.13.1.21,0,.09-.04.14-.08.22-.34.06-.95.06-1.25.55-.1.16-.18.32-.18,1.02v4.13c0,1.58.4,1.74.59,1.86.08.06.57.12.85.12.06.08.08.14.08.22,0,.13-.04.14-.08.22"/></svg>