<svg width="368" height="104" viewBox="0 0 368 104" fill="none" xmlns="http://www.w3.org/2000/svg">
<g clip-path="url(#clip0_173_6397)">
<path d="M68.7219 47.0316C70.9119 36.8728 69.7839 29.5541 69.7839 29.5541C52.9226 34.1149 45.167 20.3008 45.167 20.3008C45.167 20.3008 37.4115 34.1149 20.5502 29.5541C20.5502 29.5541 19.4222 36.8728 21.6122 47.0316H68.7219Z" fill="white"/>
<path d="M45.1672 47.9125L28.207 64.3281C29.7301 67.0118 31.5414 69.7203 33.6903 72.4041L45.1672 61.0927L56.6441 72.4041C58.7847 69.7203 60.5959 67.0036 62.1273 64.3281L45.1672 47.9125Z" fill="white"/>
<path d="M45.1672 47.9125L28.207 64.3281C29.7301 67.0118 31.5414 69.7203 33.6903 72.4041L45.1672 61.0927L56.6441 72.4041C58.7847 69.7203 60.5959 67.0036 62.1273 64.3281L45.1672 47.9125Z" fill="white"/>
<path d="M45.167 22.5236C45.941 23.5527 47.1265 24.9439 48.7484 26.3352C53.9353 30.789 59.4514 31.7275 63.1645 31.7275C64.9594 31.7275 66.8118 31.5217 68.6972 31.1101C68.8948 33.6292 69.0841 39.4578 67.5034 46.7764C66.219 52.7367 64.0455 58.4336 61.0404 63.7188C59.4844 66.4602 57.6731 69.1275 55.6725 71.6384C52.6674 75.4089 49.1354 78.9324 45.167 82.1183C41.1987 78.9324 37.675 75.4089 34.6617 71.6384C32.661 69.1275 30.8497 66.4602 29.2937 63.7188C26.2886 58.4336 24.1151 52.7285 22.8307 46.7764C21.7275 41.6641 21.5052 37.3091 21.5052 34.5595C21.5052 33.1105 21.5711 31.9333 21.6369 31.1101C23.5223 31.5217 25.3747 31.7275 27.1696 31.7275C33.896 31.7275 38.7206 28.7967 41.5857 26.3352C43.2076 24.9439 44.3931 23.5527 45.167 22.5236ZM45.167 20.3008C45.167 20.3008 39.4533 30.4762 27.1696 30.4762C25.1442 30.4762 22.9378 30.1963 20.5502 29.5541C20.5502 29.5541 19.4222 36.8728 21.6122 47.0316C22.7402 52.251 24.7326 58.2195 28.2152 64.328C29.7383 67.0118 31.5495 69.7203 33.6984 72.404C36.7775 76.2651 40.5565 80.0849 45.1753 83.699C49.794 80.0849 53.5648 76.2651 56.6522 72.404C58.7928 69.7203 60.6041 67.0036 62.1354 64.328C65.6098 58.2113 67.6104 52.251 68.7383 47.0316C70.9283 36.8728 69.8004 29.5541 69.8004 29.5541C67.4128 30.1963 65.2063 30.4762 63.181 30.4762C50.8973 30.4762 45.1835 20.3008 45.1835 20.3008H45.167Z" fill="white"/>
</g>
<path d="M88.0126 20.2968H86.7695V83.7032H88.0126V20.2968Z" fill="white"/>
<path d="M122.761 48.3887V54.5642H115.672V66.3782H124.694V72.5H107.51V31.688H124.425V37.8635H115.672V48.3887H122.761ZM149.614 72.5H141.881L136.726 50.8589C135.974 47.5832 135.33 44.576 134.954 42.5354H134.632C134.685 44.6297 134.793 47.9054 134.793 51.0737V72.5H128.617V31.688H137.532L141.505 49.8386C142.15 53.0069 142.848 56.7122 143.224 58.9139H143.546C143.546 56.6585 143.385 53.2217 143.385 49.5164V31.688H149.614V72.5ZM174.365 40.8707V45.0056L167.437 46.9925V39.9041C167.437 37.8635 166.739 37.1117 165.128 37.1117C163.517 37.1117 162.497 37.8635 162.497 39.9041V64.3376C162.497 66.4319 163.678 67.2374 165.343 67.2374C167.115 67.2374 168.136 66.2171 168.136 63.8543V56.8196H165.236V51.6107H174.741V72.5H170.821L169.747 69.3317H169.478C168.136 72.0704 166.417 73.037 162.873 73.037C157.557 73.037 154.335 69.7613 154.335 62.9414V41.2466C154.335 34.4267 158.899 31.151 164.645 31.151C170.606 31.151 174.365 34.4804 174.365 40.8707ZM187.543 31.688V72.5H179.38V31.688H187.543ZM213.461 72.5H205.728L200.573 50.8589C199.821 47.5832 199.177 44.576 198.801 42.5354H198.479C198.532 44.6297 198.64 47.9054 198.64 51.0737V72.5H192.464V31.688H201.378L205.352 49.8386C205.997 53.0069 206.695 56.7122 207.071 58.9139H207.393C207.393 56.6585 207.232 53.2217 207.232 49.5164V31.688H213.461V72.5ZM233.647 48.3887V54.5642H226.559V66.3782H235.58V72.5H218.396V31.688H235.312V37.8635H226.559V48.3887H233.647ZM254.755 48.3887V54.5642H247.666V66.3782H256.688V72.5H239.504V31.688H256.419V37.8635H247.666V48.3887H254.755ZM268.613 72.5H260.45V31.688H271.674C277.473 31.688 281.071 33.5138 281.071 40.4948V45.0593C281.071 48.7646 278.762 50.9663 275.057 51.7718V51.9866C278.547 52.9532 280.158 55.316 280.749 59.4509C280.91 60.6323 280.964 61.9748 281.071 63.5321C281.232 68.0966 281.608 71.1038 282.414 72.2315V72.5H273.983C273.446 71.963 273.016 69.8687 273.016 67.9892V58.2158C273.016 54.8864 271.835 54.242 269.901 54.242H268.613V72.5ZM270.6 48.9257C272.049 48.9257 273.016 48.4424 273.016 46.187V39.2597C273.016 37.6487 272.479 37.1117 270.707 37.1117H268.613V48.9257H270.6ZM294.601 31.688V72.5H286.439V31.688H294.601ZM320.519 72.5H312.786L307.631 50.8589C306.879 47.5832 306.235 44.576 305.859 42.5354H305.537C305.591 44.6297 305.698 47.9054 305.698 51.0737V72.5H299.523V31.688H308.437L312.411 49.8386C313.055 53.0069 313.753 56.7122 314.129 58.9139H314.451C314.451 56.6585 314.29 53.2217 314.29 49.5164V31.688H320.519V72.5ZM345.27 40.8707V45.0056L338.343 46.9925V39.9041C338.343 37.8635 337.645 37.1117 336.034 37.1117C334.423 37.1117 333.402 37.8635 333.402 39.9041V64.3376C333.402 66.4319 334.584 67.2374 336.248 67.2374C338.02 67.2374 339.041 66.2171 339.041 63.8543V56.8196H336.141V51.6107H345.646V72.5H341.726L340.652 69.3317H340.383C339.041 72.0704 337.322 73.037 333.778 73.037C328.462 73.037 325.24 69.7613 325.24 62.9414V41.2466C325.24 34.4267 329.804 31.151 335.55 31.151C341.511 31.151 345.27 34.4804 345.27 40.8707Z" fill="white"/>
<defs>
<clipPath id="clip0_173_6397">
<rect width="49.831" height="63.3981" fill="white" transform="translate(20.2598 20.3008)"/>
</clipPath>
</defs>
</svg>
