<svg width="584" height="104" viewBox="0 0 584 104" fill="none" xmlns="http://www.w3.org/2000/svg">
<g clip-path="url(#clip0_173_6385)">
<path d="M68.7219 47.0316C70.9119 36.8728 69.7839 29.5541 69.7839 29.5541C52.9226 34.1149 45.167 20.3009 45.167 20.3009C45.167 20.3009 37.4115 34.1149 20.5502 29.5541C20.5502 29.5541 19.4222 36.8728 21.6122 47.0316H68.7219Z" fill="white"/>
<path d="M45.1672 47.9126L28.207 64.3281C29.7301 67.0119 31.5414 69.7203 33.6903 72.4041L45.1672 61.0927L56.6441 72.4041C58.7847 69.7203 60.5959 67.0036 62.1273 64.3281L45.1672 47.9126Z" fill="white"/>
<path d="M45.1672 47.9126L28.207 64.3281C29.7301 67.0119 31.5414 69.7203 33.6903 72.4041L45.1672 61.0927L56.6441 72.4041C58.7847 69.7203 60.5959 67.0036 62.1273 64.3281L45.1672 47.9126Z" fill="white"/>
<path d="M45.167 22.5236C45.941 23.5527 47.1265 24.944 48.7484 26.3352C53.9353 30.789 59.4514 31.7275 63.1645 31.7275C64.9594 31.7275 66.8118 31.5217 68.6972 31.1101C68.8948 33.6292 69.0841 39.4578 67.5034 46.7764C66.219 52.7367 64.0455 58.4336 61.0404 63.7188C59.4844 66.4602 57.6731 69.1275 55.6725 71.6384C52.6674 75.4089 49.1354 78.9324 45.167 82.1183C41.1987 78.9324 37.675 75.4089 34.6617 71.6384C32.661 69.1275 30.8497 66.4602 29.2937 63.7188C26.2886 58.4336 24.1151 52.7285 22.8307 46.7764C21.7275 41.6641 21.5052 37.3091 21.5052 34.5595C21.5052 33.1106 21.5711 31.9333 21.6369 31.1101C23.5223 31.5217 25.3747 31.7275 27.1696 31.7275C33.896 31.7275 38.7206 28.7967 41.5857 26.3352C43.2076 24.944 44.3931 23.5527 45.167 22.5236ZM45.167 20.3009C45.167 20.3009 39.4533 30.4762 27.1696 30.4762C25.1442 30.4762 22.9378 30.1963 20.5502 29.5541C20.5502 29.5541 19.4222 36.8728 21.6122 47.0316C22.7402 52.251 24.7326 58.2195 28.2152 64.328C29.7383 67.0118 31.5495 69.7203 33.6984 72.4041C36.7775 76.2651 40.5565 80.0849 45.1753 83.699C49.794 80.0849 53.5648 76.2651 56.6522 72.4041C58.7928 69.7203 60.6041 67.0036 62.1354 64.328C65.6098 58.2113 67.6104 52.251 68.7383 47.0316C70.9283 36.8728 69.8004 29.5541 69.8004 29.5541C67.4128 30.1963 65.2063 30.4762 63.181 30.4762C50.8973 30.4762 45.1835 20.3009 45.1835 20.3009H45.167Z" fill="white"/>
</g>
<path d="M88.0126 20.2968H86.7695V83.7032H88.0126V20.2968Z" fill="white"/>
<path d="M128.238 46.8851C128.238 53.5976 124.748 55.9067 119.592 55.9067H115.672V72.5H107.51V31.688H119.592C124.801 31.688 128.238 33.9971 128.238 40.6559V46.8851ZM120.129 47.6369V40.0115C120.129 38.0783 119.485 37.5413 117.713 37.5413H115.672V50.1608H117.713C119.485 50.1608 120.129 49.6238 120.129 47.6369ZM140.08 72.5H131.917V31.688H143.141C148.94 31.688 152.538 33.5138 152.538 40.4948V45.0593C152.538 48.7646 150.229 50.9663 146.524 51.7718V51.9866C150.014 52.9532 151.625 55.316 152.216 59.4509C152.377 60.6323 152.431 61.9748 152.538 63.5321C152.699 68.0966 153.075 71.1038 153.881 72.2315V72.5H145.45C144.913 71.963 144.483 69.8687 144.483 67.9892V58.2158C144.483 54.8864 143.302 54.242 141.369 54.242H140.08V72.5ZM142.067 48.9257C143.517 48.9257 144.483 48.4424 144.483 46.187V39.2597C144.483 37.6487 143.946 37.1117 142.174 37.1117H140.08V48.9257H142.067ZM166.068 31.688V72.5H157.906V31.688H166.068ZM191.986 72.5H184.254L179.098 50.8589C178.347 47.5832 177.702 44.576 177.326 42.5354H177.004C177.058 44.6297 177.165 47.9054 177.165 51.0737V72.5H170.99V31.688H179.904L183.878 49.8386C184.522 53.0069 185.22 56.7122 185.596 58.9139H185.918C185.918 56.6585 185.757 53.2217 185.757 49.5164V31.688H191.986V72.5ZM204.869 39.8504V64.3376C204.869 66.3782 205.89 67.0763 207.447 67.0763C209.004 67.0763 209.863 66.3782 209.863 64.3376V55.5845L217.059 57.5714V63.3173C217.059 69.6539 213.569 73.037 207.071 73.037C201.218 73.037 196.707 69.9224 196.707 62.9414V41.2466C196.707 34.4267 201.218 31.151 207.071 31.151C213.515 31.151 217.059 34.4804 217.059 40.8707V45.5426L209.863 47.5295V39.8504C209.863 37.8098 209.004 37.1117 207.447 37.1117C205.89 37.1117 204.869 37.8098 204.869 39.8504ZM236.794 48.3887V54.5642H229.705V66.3782H238.727V72.5H221.543V31.688H238.458V37.8635H229.705V48.3887H236.794ZM255.222 37.8635V72.5H247.06V37.8635H240.67V31.688H261.613V37.8635H255.222ZM285.6 41.0855V63.0488C285.6 70.2446 280.606 73.037 274.86 73.037C269.114 73.037 264.12 70.2446 264.12 63.0488V41.0855C264.12 33.9434 269.114 31.151 274.86 31.151C280.606 31.151 285.6 33.9434 285.6 41.0855ZM277.438 39.8504C277.438 37.8098 276.417 37.1117 274.86 37.1117C273.303 37.1117 272.282 37.8098 272.282 39.8504V64.3376C272.282 66.3782 273.303 67.0763 274.86 67.0763C276.417 67.0763 277.438 66.3782 277.438 64.3376V39.8504ZM311.316 72.5H303.583L298.428 50.8589C297.676 47.5832 297.032 44.576 296.656 42.5354H296.334C296.387 44.6297 296.495 47.9054 296.495 51.0737V72.5H290.319V31.688H299.233L303.207 49.8386C303.852 53.0069 304.55 56.7122 304.926 58.9139H305.248C305.248 56.6585 305.087 53.2217 305.087 49.5164V31.688H311.316V72.5Z" fill="white"/>
<path d="M338.922 48.3887V54.5642H331.834V66.3782H340.856V72.5H323.672V31.688H340.587V37.8635H331.834V48.3887H338.922ZM365.776 72.5H358.043L352.888 50.8589C352.136 47.5832 351.492 44.576 351.116 42.5354H350.794C350.847 44.6297 350.955 47.9054 350.955 51.0737V72.5H344.779V31.688H353.693L357.667 49.8386C358.312 53.0069 359.01 56.7122 359.386 58.9139H359.708C359.708 56.6585 359.547 53.2217 359.547 49.5164V31.688H365.776V72.5ZM390.527 40.8707V45.0056L383.599 46.9925V39.9041C383.599 37.8635 382.901 37.1117 381.29 37.1117C379.679 37.1117 378.659 37.8635 378.659 39.9041V64.3376C378.659 66.4319 379.84 67.2374 381.505 67.2374C383.277 67.2374 384.297 66.2171 384.297 63.8543V56.8196H381.398V51.6107H390.902V72.5H386.982L385.908 69.3317H385.64C384.297 72.0704 382.579 73.037 379.035 73.037C373.718 73.037 370.496 69.7613 370.496 62.9414V41.2466C370.496 34.4267 375.061 31.151 380.807 31.151C386.768 31.151 390.527 34.4804 390.527 40.8707ZM403.705 31.688V72.5H395.542V31.688H403.705ZM429.623 72.5H421.89L416.735 50.8589C415.983 47.5832 415.339 44.576 414.963 42.5354H414.64C414.694 44.6297 414.802 47.9054 414.802 51.0737V72.5H408.626V31.688H417.54L421.514 49.8386C422.158 53.0069 422.857 56.7122 423.232 58.9139H423.555C423.555 56.6585 423.394 53.2217 423.394 49.5164V31.688H429.623V72.5ZM449.809 48.3887V54.5642H442.721V66.3782H451.742V72.5H434.558V31.688H451.474V37.8635H442.721V48.3887H449.809ZM470.917 48.3887V54.5642H463.828V66.3782H472.85V72.5H455.666V31.688H472.581V37.8635H463.828V48.3887H470.917ZM484.774 72.5H476.612V31.688H487.835C493.635 31.688 497.233 33.5138 497.233 40.4948V45.0593C497.233 48.7646 494.924 50.9663 491.218 51.7718V51.9866C494.709 52.9532 496.32 55.316 496.911 59.4509C497.072 60.6323 497.125 61.9748 497.233 63.5321C497.394 68.0966 497.77 71.1038 498.575 72.2315V72.5H490.144C489.607 71.963 489.178 69.8687 489.178 67.9892V58.2158C489.178 54.8864 487.996 54.242 486.063 54.242H484.774V72.5ZM486.761 48.9257C488.211 48.9257 489.178 48.4424 489.178 46.187V39.2597C489.178 37.6487 488.641 37.1117 486.869 37.1117H484.774V48.9257H486.761ZM510.763 31.688V72.5H502.6V31.688H510.763ZM536.681 72.5H528.948L523.793 50.8589C523.041 47.5832 522.397 44.576 522.021 42.5354H521.699C521.752 44.6297 521.86 47.9054 521.86 51.0737V72.5H515.684V31.688H524.599L528.572 49.8386C529.217 53.0069 529.915 56.7122 530.291 58.9139H530.613C530.613 56.6585 530.452 53.2217 530.452 49.5164V31.688H536.681V72.5ZM561.432 40.8707V45.0056L554.505 46.9925V39.9041C554.505 37.8635 553.806 37.1117 552.195 37.1117C550.584 37.1117 549.564 37.8635 549.564 39.9041V64.3376C549.564 66.4319 550.746 67.2374 552.41 67.2374C554.182 67.2374 555.203 66.2171 555.203 63.8543V56.8196H552.303V51.6107H561.808V72.5H557.888L556.814 69.3317H556.545C555.203 72.0704 553.484 73.037 549.94 73.037C544.624 73.037 541.402 69.7613 541.402 62.9414V41.2466C541.402 34.4267 545.966 31.151 551.712 31.151C557.673 31.151 561.432 34.4804 561.432 40.8707Z" fill="white"/>
<defs>
<clipPath id="clip0_173_6385">
<rect width="49.831" height="63.3981" fill="white" transform="translate(20.2598 20.3009)"/>
</clipPath>
</defs>
</svg>
