<?xml version="1.0" encoding="UTF-8"?><svg xmlns="http://www.w3.org/2000/svg" width="40" height="52" viewBox="0 0 40 52"><defs><style>.a{fill:#ed6d0b;}.b{fill:#000;}.c{fill:#fff;isolation:isolate;}</style></defs><title>Princeton University logo</title><path class="a" d="M11.201,41.896c2.523,3.202,5.472,6.093,8.791,8.584,3.284-2.456,6.249-5.331,8.807-8.562l-8.813-8.603-8.784,8.581Z"/><path class="a" d="M7.101,35.742l12.894-12.432,12.919,12.467c2.146-3.83,3.774-8.02,4.776-12.499,.044-.213,.082-.422,.126-.635H2.183c.964,4.611,2.636,9.021,4.919,13.099Z"/><path class="a" d="M7.094,35.742c1.201,2.152,2.576,4.208,4.109,6.153l8.785-8.581,8.813,8.603c1.52-1.923,2.896-3.976,4.106-6.14l-12.919-12.467-12.894,12.432Z"/><path class="b" d="M19.987,32.965l-8.76,8.557c-1.417-1.82-2.701-3.747-3.821-5.733l12.581-12.131,12.607,12.166c-1.129,1.998-2.412,3.92-3.818,5.722l-8.789-8.58Z"/><path class="b" d="M19.987,24.005l12.294,11.864c-1.052,1.844-2.237,3.623-3.531,5.301l-8.413-8.213-.349-.341-.349,.341-8.384,8.19c-1.302-1.694-2.489-3.478-3.535-5.313l12.268-11.829m0-.695l-12.894,12.432c1.201,2.152,2.576,4.208,4.109,6.153l8.785-8.581,8.813,8.603c1.52-1.923,2.896-3.976,4.106-6.14l-12.919-12.467h0Z"/><path class="b" d="M38.621,9.386c-1.514,.463-3.123,.714-4.795,.714-5.895,0-11.045-3.11-13.823-7.74-2.782,4.63-7.931,7.74-13.826,7.74-1.669,0-3.278-.251-4.789-.711-.395,4.519-.107,8.977,.787,13.265H37.809c.933-4.471,1.185-8.93,.812-13.268Z"/><path class="c" d="M28.779,14.858v-1.52h-.926v-1.073l-.97-.273h-.069v-.911s-.335,.403-1.871,.403c-1.454,0-2.308-.473-3.464-.473-1.113,0-1.454,.638-1.454,.638v.368h-.038v-.368s-.348-.638-1.454-.638c-1.157,0-2.01,.476-3.465,.476-1.536,0-1.802-.403-1.802-.403v.958h-.063l-1.053,.222v1.073h-.929v1.52h.929v2.459h-.929v1.523h.929v1.891s1.558,.244,3,.244c1.704,0,2.687-.247,3.793-.27v.479s.446,.222,1.04,.222c.601,0,1.078-.222,1.078-.222v-.479c1.103,.022,2.086,.27,3.799,.27,1.435,0,2.993-.244,2.993-.244v-1.891h.926v-1.523h-.926v-2.459h.926Z"/><path class="b" d="M26.96,11.891l.005-1.165-.281,.298s-.348,.349-1.753,.349l-1.902-.254-1.565-.219c-.858,0-1.287,.352-1.473,.565-.188-.213-.62-.565-1.473-.565l-1.563,.222-1.902,.254c-1.381,0-1.669-.333-1.672-.336l-.286-.352-.005,.447v.8l-1.127,.238v8.742l.136,.019c.016,.003,1.587,.248,3.025,.248,1.418,0,3.101-.187,3.632-.251v.397l.089,.048c.021,.01,.487,.238,1.113,.238,.629,0,1.125-.228,1.146-.238l.093-.044v-.4c.531,.063,2.214,.251,3.641,.251s3.005-.244,3.021-.248l.136-.019V12.183l-1.034-.292Zm-6.808-.111c.013-.022,.321-.555,1.312-.555l1.494,.213,1.973,.26c.955,0,1.442-.149,1.712-.279v8.262c-.021-.041-.408,.254-1.712,.254l-1.902-.254-1.565-.219c-.678,0-1.075,.219-1.312,.416V11.781Zm-6.739-.346c.259,.13,.724,.266,1.64,.266l1.971-.26,1.494-.216c.981,0,1.294,.527,1.312,.555v8.1c-.239-.2-.64-.419-1.324-.419l-1.565,.222-1.887,.251c-1.381,0-1.669-.333-1.672-.336,0,0,.028-7.611,.032-8.163Zm14.259,9.199c-.397,.057-1.659,.222-2.834,.222-1.684,0-3.761-.263-3.782-.267l-.182-.025v.555c-.16,.06-.509,.168-.917,.168-.4,0-.727-.108-.879-.165v-.559l-.182,.025c-.02,.003-2.099,.267-3.773,.267-1.179,0-2.442-.165-2.839-.222V12.437c.149-.028,.589-.124,.805-.168v7.424c.079,.171,.417,.565,1.963,.565l1.957-.257,1.495-.216c.999,0,1.312,.533,1.326,.555l.046-.025h.231l.044,.025c.013-.022,.321-.555,1.312-.555l1.494,.213,1.973,.26c1.567,0,1.958-.413,1.998-.46l.03-7.567c.206,.057,.582,.162,.713,.2v8.202Z"/><path class="b" d="M15.704,12.89c-.126,.009-.209,.076-.247,.162l-.518,1.158s-.025,.019-.041,.019c-.016,0-.035-.019-.047-.054-.013-.041-.076-.203-.212-.52l-.168-.378c-.06-.14-.107-.232-.123-.26-.06-.105-.136-.114-.218-.127-.009-.013-.009-.026-.009-.035,0-.013,0-.019,.006-.035h.085c.098,0,.18,.006,.253,.006,.085,0,.228-.01,.322-.01h.057c.01,.003,.013,.022,.013,.032,0,.006,0,.029-.006,.038-.063,.006-.205,.003-.205,.092,0,.019,.003,.054,.013,.076l.341,.812,.285-.673c.035-.076,.038-.143,.038-.178,0-.076-.054-.111-.196-.127-.003-.01-.01-.022-.01-.032,0-.013,.006-.032,.01-.041h.041c.063,0,.126,.01,.269,.01,.025,0,.123-.006,.171-.006h.098c.006,.013,.013,.019,.013,.032,0,.01-.006,.029-.013,.038Z"/><path class="b" d="M17.149,14.187c-.414,0-.639-.01-.695-.01-.044,0-.145-.003-.196-.003-.057,0-.19,.009-.335,.009l-.082-.003c-.006-.013-.006-.019-.006-.032,0-.01,0-.026,.003-.038,.111-.009,.19-.029,.209-.044,.022-.029,.038-.086,.044-.209,0-.064,.003-.133,.003-.206,0-.105-.003-.232-.003-.384v-.216c-.003-.149-.076-.149-.231-.168-.003-.013-.006-.026-.006-.035,0-.01,.003-.032,.013-.035h.076c.05,0,.186,.003,.446,.003,.237,0,.468,.003,.518,.003,.032,0,.123,.003,.142,.003,.032,0,.044,.003,.044,.032l.019,.311c-.019,.01-.022,.013-.038,.013-.013,0-.022,0-.032-.003-.092-.156-.136-.187-.206-.238-.025-.019-.063-.032-.12-.035-.019,0-.066-.003-.183-.003-.095,0-.142,.003-.155,.003-.016,0-.013,0-.019,.054-.003,.032-.006,.095-.006,.276v.178h.047c.06,0,.12-.006,.155-.016,.054-.016,.111-.054,.139-.098,.013-.016,.025-.092,.032-.114,.009-.006,.025-.01,.044-.01,.013,0,.025,.003,.035,.01-.003,.057-.013,.162-.013,.295,0,.067,.006,.213,.006,.273-.013,.009-.019,.009-.038,.009-.009,0-.028,0-.038-.003-.013-.117-.032-.197-.13-.238-.054-.022-.098-.029-.152-.029-.028,0-.063,.003-.092,.006v.359c0,.083,.006,.133,.019,.162,.01,.022,.041,.07,.082,.076,.019,.003,.054,.01,.127,.01h.196c.051,0,.123-.006,.149-.022,.047-.032,.174-.168,.218-.295,.019-.006,.028-.006,.041-.006s.025,.003,.041,.01v.362c0,.035-.022,.038-.073,.038Z"/><path class="b" d="M18.793,13.248c-.01,0-.022-.003-.038-.003-.032-.086-.07-.162-.101-.203-.057-.07-.111-.117-.253-.133-.032-.003-.107-.003-.133-.003l-.003,.606c0,.095,0,.206,.003,.416,.003,.159,.073,.159,.237,.181,.009,.016,.013,.028,.013,.038,0,.013-.003,.022-.01,.035h-.06c-.095,0-.285-.006-.345-.006-.041,0-.25,.009-.348,.009-.01-.016-.013-.016-.013-.038,0-.01,.003-.022,.009-.035,.218-.016,.24-.057,.247-.127,.006-.044,.006-.225,.006-.409v-.501c0-.064-.003-.127-.013-.168-.041,0-.174,0-.212,.016-.111,.041-.19,.133-.275,.301-.01,.003-.025,.003-.035,.003-.013,0-.025-.003-.032-.013v-.352c0-.032,.003-.041,.041-.041,.032,0,.082,.003,.149,.003,.047,0,.247,.003,.496,.003,.329,0,.572-.01,.635-.01,.032,0,.054,0,.066,.013,.003,.006,0,.032,0,.051v.352c-.006,.013-.022,.016-.035,.016Z"/><path class="b" d="M15.638,15.396c-.013,0-.022-.003-.041-.003-.028-.086-.066-.162-.101-.203-.054-.07-.111-.117-.253-.133-.032-.003-.107-.003-.133-.003l-.003,.606c0,.095,0,.206,.003,.416,.003,.159,.076,.159,.24,.181,.01,.016,.01,.029,.01,.038,0,.013,0,.022-.006,.035h-.06c-.098,0-.288-.006-.345-.006-.041,0-.25,.009-.351,.009-.006-.016-.01-.016-.01-.038,0-.01,.003-.022,.006-.035,.218-.016,.24-.057,.25-.127,.003-.045,.003-.225,.003-.409v-.501c0-.063,0-.127-.01-.168-.041,0-.177,0-.215,.016-.111,.041-.186,.133-.272,.301-.013,.003-.028,.003-.038,.003-.013,0-.022-.003-.032-.013v-.352c0-.032,.006-.041,.041-.041s.082,.003,.149,.003c.05,0,.25,.003,.499,.003,.325,0,.572-.01,.632-.01,.035,0,.057,0,.066,.013,.006,.006,.003,.032,.003,.051v.352c-.01,.013-.022,.016-.035,.016Z"/><path class="b" d="M17.199,16.336c-.411,0-.638-.01-.692-.01-.044,0-.145-.003-.199-.003s-.19,.009-.332,.009l-.082-.003c-.006-.013-.01-.019-.01-.032,0-.009,0-.025,.006-.038,.111-.01,.19-.029,.206-.045,.025-.028,.038-.086,.044-.209,.003-.063,.006-.133,.006-.206,0-.105-.003-.232-.003-.384,0-.108-.003-.171-.003-.216-.003-.149-.073-.149-.228-.168-.006-.013-.01-.025-.01-.035,0-.009,.006-.032,.016-.035h.073c.054,0,.187,.003,.446,.003,.24,0,.468,.003,.522,.003,.028,0,.123,.003,.139,.003,.035,0,.047,.003,.047,.032l.016,.311c-.016,.009-.022,.013-.038,.013-.009,0-.019,0-.032-.003-.089-.155-.133-.187-.205-.238-.025-.019-.06-.032-.117-.035-.019,0-.066-.003-.186-.003-.092,0-.142,.003-.152,.003-.019,0-.016,0-.022,.054,0,.032-.003,.095-.003,.276v.178h.044c.063,0,.123-.006,.155-.016,.057-.016,.111-.054,.142-.098,.01-.016,.025-.092,.028-.114,.013-.006,.028-.009,.044-.009,.016,0,.028,.003,.038,.009-.003,.057-.016,.162-.016,.295,0,.067,.01,.213,.01,.273-.016,.01-.019,.01-.038,.01-.013,0-.028,0-.041-.003-.013-.117-.028-.197-.129-.238-.054-.022-.098-.029-.149-.029-.028,0-.063,.003-.092,.006v.359c0,.083,.006,.133,.016,.162,.013,.022,.044,.07,.082,.076,.019,.003,.057,.009,.126,.009h.199c.05,0,.12-.006,.145-.022,.05-.032,.177-.168,.221-.295,.016-.006,.028-.006,.041-.006,.01,0,.025,.003,.038,.01v.362c0,.035-.022,.038-.073,.038Z"/><path class="b" d="M18.16,16.368c-.114,0-.24-.044-.316-.083-.013-.006-.038-.013-.051-.013-.016,0-.057,.022-.101,.054-.032,0-.07-.016-.079-.041,0-.029,.025-.114,.025-.168,0-.032-.01-.187-.013-.222,.013-.019,.038-.029,.06-.029h.022c.028,.057,.085,.206,.126,.267,.085,.098,.212,.143,.303,.143,.101,0,.177-.019,.221-.067,.063-.06,.076-.098,.076-.165,0-.051-.01-.092-.038-.124-.035-.044-.063-.064-.142-.102-.06-.029-.272-.083-.348-.124-.095-.044-.142-.082-.19-.133-.057-.073-.079-.171-.079-.251,0-.219,.174-.384,.42-.384,.092,0,.218,.009,.325,.095,.022-.026,.051-.054,.079-.079,.041,0,.069,.022,.073,.038-.003,.032-.022,.117-.022,.187,0,.035,.022,.181,.022,.203-.016,.006-.032,.019-.054,.019-.006,0-.016-.003-.025-.006-.038-.067-.073-.178-.114-.238-.063-.086-.152-.117-.272-.117-.136,0-.247,.086-.247,.203,0,.114,.092,.168,.168,.203,.057,.022,.126,.048,.205,.073,.101,.035,.177,.06,.218,.083,.158,.083,.224,.2,.224,.362,0,.254-.228,.416-.48,.416Z"/><path class="b" d="M16.188,18.487c-.414,0-.638-.01-.695-.01-.044,0-.145-.003-.196-.003-.057,0-.19,.009-.335,.009l-.082-.003c-.006-.013-.006-.019-.006-.032,0-.009,0-.025,.003-.038,.111-.01,.19-.029,.209-.044,.022-.029,.038-.086,.044-.209,0-.064,.003-.133,.003-.206,0-.105-.003-.232-.003-.384v-.216c-.003-.149-.076-.149-.231-.168-.003-.013-.006-.025-.006-.035,0-.01,.003-.032,.013-.035h.076c.051,0,.187,.003,.446,.003,.237,0,.468,.003,.518,.003,.032,0,.123,.003,.142,.003,.032,0,.044,.003,.044,.032l.019,.311c-.019,.009-.022,.013-.038,.013-.013,0-.022,0-.032-.003-.092-.155-.136-.187-.205-.238-.025-.019-.063-.032-.12-.035-.019,0-.066-.003-.183-.003-.095,0-.142,.003-.155,.003-.016,0-.013,0-.019,.054-.003,.032-.006,.095-.006,.276v.178h.047c.06,0,.12-.006,.155-.016,.054-.016,.111-.054,.139-.098,.013-.016,.025-.092,.032-.114,.01-.006,.025-.009,.044-.009,.013,0,.025,.003,.035,.009-.003,.057-.013,.162-.013,.295,0,.067,.006,.213,.006,.273-.013,.009-.019,.009-.038,.009-.01,0-.028,0-.038-.003-.013-.117-.032-.197-.129-.238-.054-.022-.098-.029-.152-.029-.028,0-.063,.003-.092,.006v.359c0,.083,.006,.133,.019,.162,.01,.022,.041,.07,.082,.076,.019,.003,.054,.009,.126,.009h.196c.05,0,.123-.006,.149-.022,.047-.032,.174-.168,.218-.295,.019-.006,.028-.006,.041-.006,.013,0,.025,.003,.041,.01v.362c0,.035-.022,.038-.073,.038Z"/><path class="b" d="M18.179,17.183c-.139,.006-.259,.083-.259,.305l-.003,.704c0,.029,.013,.229,.013,.305-.022,.013-.044,.022-.057,.022-.006,0-.019-.009-.035-.022l-.964-1.041,.01,.213,.003,.384c0,.029,.006,.102,.013,.155,.006,.086,.032,.114,.069,.146,.047,.041,.127,.054,.183,.06,.006,.009,.01,.022,.01,.032,0,.003-.003,.022-.013,.035h-.104c-.089,0-.158-.003-.25-.003-.06,0-.145,.006-.205,.006h-.044c-.003-.009-.003-.025-.003-.032s0-.019,.006-.035c.069-.006,.177-.038,.218-.095,.016-.035,.022-.098,.022-.165v-.492c0-.079-.003-.121-.006-.197-.003-.063-.016-.111-.047-.149-.003-.009-.035-.041-.066-.073-.032-.025-.107-.048-.155-.067-.006-.013-.01-.029-.01-.032,0-.01,.003-.026,.01-.035h.035c.028,0,.177,.006,.291,.006h.066c.013,.006,.035,.019,.041,.029l.714,.784c.054,.06,.123,.14,.161,.19v-.565c0-.076-.003-.13-.006-.159-.006-.057-.019-.108-.041-.146-.022-.035-.155-.054-.224-.07-.006-.013-.006-.028-.006-.041,0-.006,0-.016,.003-.029h.041c.066,0,.174,.009,.24,.009,.164,0,.215-.006,.297-.006h.054c.006,.013,.006,.026,.006,.035,0,.006,0,.022-.006,.032Z"/><path class="b" d="M22.684,12.883c-.136,.006-.259,.082-.259,.305v.704c0,.028,.01,.228,.01,.305-.019,.013-.044,.022-.054,.022s-.019-.009-.038-.022l-.964-1.041,.013,.213,.003,.384c0,.029,.006,.102,.01,.155,.009,.086,.035,.114,.069,.146,.051,.041,.13,.054,.183,.06,.006,.009,.01,.022,.01,.032,0,.003-.003,.022-.01,.035h-.107c-.085,0-.155-.003-.25-.003-.06,0-.142,.006-.202,.006h-.044c-.003-.009-.006-.025-.006-.032s0-.019,.009-.035c.066-.006,.174-.038,.215-.095,.019-.035,.022-.098,.022-.165v-.492c0-.079,0-.121-.003-.197-.003-.063-.019-.111-.047-.149-.006-.009-.035-.041-.07-.073-.028-.025-.107-.048-.155-.067-.003-.013-.006-.029-.006-.032,0-.01,.003-.025,.006-.035h.038c.025,0,.174,.006,.288,.006h.066c.013,.006,.035,.019,.044,.029l.714,.784c.054,.06,.123,.14,.161,.19v-.565c0-.076-.006-.13-.009-.159-.003-.057-.019-.108-.041-.146-.022-.035-.155-.054-.221-.07-.006-.013-.01-.029-.01-.041,0-.006,0-.016,.006-.029h.041c.066,0,.174,.01,.24,.01,.161,0,.215-.006,.297-.006h.051c.006,.013,.01,.026,.01,.035,0,.006-.003,.022-.01,.032Z"/><path class="b" d="M24.103,14.016c-.133,.13-.316,.206-.487,.206-.161,0-.348-.07-.477-.197-.142-.136-.205-.321-.205-.524,0-.194,.063-.378,.205-.517,.152-.146,.316-.206,.481-.206,.12,0,.231,.032,.36,.102,.212,.136,.335,.362,.335,.609,0,.194-.076,.387-.212,.527Zm-.221-1.003c-.066-.089-.149-.143-.272-.143-.114,0-.187,.051-.253,.143-.082,.105-.126,.273-.126,.486,0,.209,.044,.374,.12,.479,.07,.102,.149,.152,.269,.152,.145,0,.231-.07,.297-.187,.06-.105,.089-.251,.089-.441,0-.225-.044-.384-.123-.489Z"/><path class="b" d="M26.044,12.89c-.123,.009-.206,.076-.243,.162l-.518,1.158s-.025,.019-.041,.019c-.016,0-.038-.019-.047-.054-.013-.041-.076-.203-.215-.52l-.164-.378c-.06-.14-.107-.232-.123-.26-.063-.105-.136-.114-.218-.127-.013-.013-.013-.026-.013-.035,0-.013,0-.019,.01-.035h.085c.095,0,.177,.006,.25,.006,.085,0,.228-.01,.326-.01h.054c.013,.003,.016,.022,.016,.032,0,.006,0,.029-.006,.038-.066,.006-.206,.003-.206,.092,0,.019,0,.054,.013,.076l.338,.812,.288-.673c.032-.076,.035-.143,.035-.178,0-.076-.054-.111-.196-.127-.003-.01-.006-.022-.006-.032,0-.013,.003-.032,.006-.041h.041c.063,0,.127,.01,.272,.01,.022,0,.123-.006,.171-.006h.098c.006,.013,.01,.019,.01,.032,0,.01-.003,.029-.013,.038Z"/><path class="b" d="M22.238,15.396c-.013,0-.022-.003-.041-.003-.028-.086-.066-.162-.101-.203-.054-.07-.111-.117-.253-.133-.032-.003-.107-.003-.133-.003l-.003,.606c0,.095,0,.206,.003,.416,.003,.159,.076,.159,.24,.181,.009,.016,.009,.029,.009,.038,0,.013,0,.022-.006,.035h-.06c-.098,0-.288-.006-.345-.006-.041,0-.25,.009-.351,.009-.006-.016-.009-.016-.009-.038,0-.01,.003-.022,.006-.035,.218-.016,.24-.057,.25-.127,.003-.045,.003-.225,.003-.409v-.501c0-.063,0-.127-.009-.168-.041,0-.177,0-.215,.016-.111,.041-.186,.133-.272,.301-.013,.003-.028,.003-.038,.003-.013,0-.022-.003-.032-.013v-.352c0-.032,.006-.041,.041-.041s.082,.003,.149,.003c.05,0,.25,.003,.499,.003,.326,0,.572-.01,.632-.01,.035,0,.057,0,.066,.013,.006,.006,.003,.032,.003,.051v.352c-.01,.013-.022,.016-.035,.016Z"/><path class="b" d="M23.875,16.336h-.107c-.07,0-.149-.01-.231-.01-.129,0-.294,.01-.357,.01-.006-.006-.009-.019-.009-.035,0-.01,.003-.022,.006-.032,.133-.006,.186-.028,.186-.082,0-.022,0-.067-.041-.178-.041-.102-.063-.146-.073-.171-.006-.009-.01-.016-.038-.016h-.43c-.028,.035-.063,.13-.101,.263-.009,.035-.009,.067-.009,.079,0,.044,.041,.095,.193,.098,.01,.016,.01,.029,.01,.038,0,.009,0,.019-.003,.032h-.038c-.101,0-.13-.006-.237-.006-.07,0-.237,.006-.294,.006-.003-.013-.006-.016-.006-.029,0-.009,0-.019,.006-.035,.082-.019,.158-.041,.196-.102,.022-.032,.095-.159,.174-.355,.076-.184,.168-.416,.209-.511,.057-.121,.076-.159,.095-.2,.028-.06,.06-.121,.073-.143,.013-.016,.041-.025,.054-.025,.022,0,.051,.013,.06,.029,.013,.025,.028,.051,.032,.067,.079,.19,.142,.359,.24,.593,.05,.117,.076,.194,.13,.317,.038,.076,.06,.136,.098,.206,.051,.105,.133,.105,.215,.127,.003,.01,.013,.019,.013,.032s-.006,.019-.013,.032Zm-.863-1.089h-.003c-.028,.054-.079,.171-.098,.222-.073,.178-.098,.238-.111,.263h.408c-.032-.083-.136-.333-.196-.486Z"/><path class="b" d="M25.987,16.336l-.553-.006h-.152c-.006-.013-.01-.029-.01-.035,0-.019,.003-.022,.013-.035,.028-.003,.101,0,.136-.013,.057-.025,.079-.083,.079-.165v-.987h-.003l-.291,.641c-.032,.07-.07,.146-.101,.222-.066,.149-.101,.251-.12,.311-.01,.026-.032,.026-.044,.026-.019,0-.032-.006-.041-.038-.038-.082-.063-.136-.076-.171l-.455-1.006h-.01v.257l.01,.641c0,.197,.101,.289,.256,.289,.006,.01,.013,.029,.013,.032,0,.01-.003,.022-.009,.035-.01,0-.041,.003-.07,.003-.019,0-.12-.01-.266-.01-.041,0-.126,.003-.193,.003h-.092c-.003-.013-.006-.022-.006-.035,0-.003,.003-.019,.006-.029,.038-.01,.171-.041,.199-.07s.054-.086,.054-.222v-.704c-.003-.111-.016-.155-.07-.194-.022-.016-.107-.026-.18-.035-.006-.013-.01-.029-.01-.038,0-.01,.003-.022,.01-.038,.054,0,.149,.006,.243,.006h.332c.013,.01,.019,.016,.028,.035l.408,.927,.073-.184c.063-.149,.155-.374,.285-.616,.028-.054,.063-.124,.082-.159l.518-.01c.006,.013,.013,.022,.013,.035s-.003,.022-.009,.035c-.057,.009-.155,.009-.202,.089-.016,.025-.025,.051-.025,.162v.663c0,.254,.063,.279,.092,.298,.016,.009,.095,.019,.139,.019,.006,.013,.01,.022,.01,.035,0,.019-.006,.022-.01,.035Z"/><path class="b" d="M22.207,17.548c-.013,0-.022-.003-.041-.003-.028-.086-.066-.162-.101-.203-.054-.07-.111-.117-.253-.133-.032-.003-.107-.003-.133-.003l-.003,.606c0,.095,0,.206,.003,.416,.003,.159,.076,.159,.24,.181,.01,.016,.01,.028,.01,.038,0,.013,0,.022-.006,.035h-.06c-.098,0-.288-.006-.345-.006-.041,0-.25,.009-.351,.009-.006-.016-.01-.016-.01-.038,0-.01,.003-.022,.006-.035,.218-.016,.24-.057,.25-.127,.003-.045,.003-.225,.003-.409v-.501c0-.063,0-.127-.01-.168-.041,0-.177,0-.215,.016-.111,.041-.186,.133-.272,.301-.013,.003-.028,.003-.038,.003-.013,0-.022-.003-.032-.013v-.352c0-.032,.006-.041,.041-.041s.082,.003,.149,.003c.05,0,.25,.003,.499,.003,.325,0,.572-.01,.632-.01,.035,0,.057,0,.066,.013,.006,.006,.003,.032,.003,.051v.352c-.01,.013-.022,.016-.035,.016Z"/><path class="b" d="M23.904,17.189c-.123,.009-.206,.076-.243,.162l-.518,1.158s-.025,.019-.041,.019-.038-.019-.047-.054c-.013-.041-.076-.203-.215-.52l-.164-.378c-.06-.14-.107-.232-.123-.26-.063-.105-.136-.114-.218-.127-.013-.013-.013-.026-.013-.035,0-.013,0-.019,.009-.035h.085c.095,0,.177,.006,.25,.006,.085,0,.228-.01,.325-.01h.054c.013,.003,.016,.022,.016,.032,0,.006,0,.028-.006,.038-.066,.006-.205,.003-.205,.092,0,.019,0,.054,.013,.076l.338,.812,.288-.673c.032-.076,.035-.143,.035-.178,0-.076-.054-.111-.196-.127-.003-.01-.006-.022-.006-.032,0-.013,.003-.032,.006-.041h.041c.063,0,.126,.01,.272,.01,.022,0,.123-.006,.171-.006h.098c.006,.013,.009,.019,.009,.032,0,.01-.003,.029-.013,.038Z"/><path class="b" d="M26.016,18.487l-.55-.006h-.155c-.006-.013-.006-.029-.006-.035,0-.019,0-.022,.01-.035,.032-.003,.101,0,.139-.013,.054-.025,.076-.083,.076-.165v-.8s.003-.146,.003-.187h-.006l-.288,.641c-.035,.07-.07,.146-.104,.222-.063,.149-.101,.251-.12,.311-.006,.025-.028,.025-.044,.025s-.028-.006-.041-.038c-.035-.083-.06-.136-.073-.171l-.458-1.006h-.01v.257l.01,.641c.003,.197,.101,.289,.259,.289,.006,.01,.01,.029,.01,.032,0,.01,0,.022-.006,.035-.013,0-.041,.003-.073,.003-.019,0-.117-.01-.262-.01-.044,0-.13,.003-.193,.003h-.092c-.006-.013-.01-.022-.01-.035,0-.003,.003-.019,.01-.029,.035-.009,.171-.041,.199-.07,.025-.028,.051-.086,.051-.222l.003-.324-.003-.381c-.003-.111-.013-.155-.07-.194-.022-.016-.107-.025-.177-.035-.009-.013-.013-.029-.013-.038,0-.01,.003-.022,.013-.038,.051,0,.149,.006,.24,.006h.335c.01,.01,.019,.016,.025,.035l.408,.927,.076-.184c.06-.149,.155-.375,.284-.616,.025-.054,.063-.124,.082-.159l.515-.01c.006,.013,.016,.022,.016,.035s-.006,.022-.013,.035c-.054,.01-.152,.01-.199,.089-.016,.025-.028,.051-.028,.162v.663c0,.254,.063,.279,.095,.298,.013,.01,.092,.019,.136,.019,.009,.013,.013,.022,.013,.035,0,.019-.006,.022-.013,.035Z"/><path class="c" d="M20.003,2.36c2.779,4.63,7.928,7.74,13.823,7.74,1.672,0,3.281-.251,4.795-.714,.373,4.335,.12,8.789-.811,13.258h.007c-.044,.213-.082,.422-.126,.635-1.002,4.479-2.63,8.669-4.776,12.499h-.008c-1.211,2.164-2.586,4.217-4.106,6.14h-.002c-2.557,3.231-5.522,6.106-8.807,8.562-3.319-2.491-6.268-5.382-8.791-8.584v-.002c-1.532-1.944-2.907-4-4.108-6.151l.006-.005c-2.28-4.073-3.95-8.478-4.914-13.084h-.011c-.895-4.287-1.182-8.746-.787-13.265,1.511,.46,3.12,.711,4.789,.711,5.895,0,11.045-3.11,13.826-7.74m0-2.36l-1.04,1.731c-2.65,4.411-7.55,7.151-12.787,7.151-1.509,0-3.002-.222-4.437-.658l-1.431-.436-.131,1.495C-.221,13.841,.051,18.424,.986,22.904l.202,.969h.023c.93,4.017,2.39,7.905,4.349,11.582l-.007,.006,.482,.878c1.101,1.973,2.357,3.886,3.739,5.698l-.003,.006,.478,.609c2.606,3.307,5.639,6.269,9.016,8.804l.726,.545,.726-.543c3.384-2.531,6.423-5.485,9.032-8.781,1.416-1.789,2.713-3.697,3.862-5.68h.006l.356-.621c2.245-4.006,3.894-8.322,4.903-12.83l.069-.346,.061-.305,.306-1.468h-.031c.711-4.038,.896-8.115,.55-12.144l-.129-1.5-1.434,.439c-1.434,.439-2.928,.661-4.441,.661-5.238,0-10.137-2.74-12.784-7.15l-1.039-1.731h0Z"/></svg>